/* XPM */
static char *box[] = {
/* columns rows colors chars-per-pixel */
"48 48 137 2",
"   c black",
".  c #080807",
"X  c #10100F",
"o  c #241A0B",
"O  c #2A1E0D",
"+  c #2C200E",
"@  c #34260C",
"#  c #3D270C",
"$  c #33290D",
"%  c #3E2F0E",
"&  c #2C2211",
"*  c #302716",
"=  c #342916",
"-  c #352C19",
";  c #392F1A",
":  c #3D321C",
">  c #232321",
",  c #3B3222",
"<  c #30302F",
"1  c #393835",
"2  c #3E3E3C",
"3  c #512F0E",
"4  c #46330E",
"5  c #68380E",
"6  c #463C24",
"7  c #453B2B",
"8  c #554110",
"9  c #5C4410",
"0  c #7D420F",
"q  c #634811",
"w  c #6D5212",
"e  c #775712",
"r  c #4B4028",
"t  c #52482E",
"y  c #4E483D",
"u  c #504636",
"i  c #53493A",
"p  c #5C5438",
"a  c #635A3C",
"s  c #4C4C47",
"d  c #5A5142",
"f  c #545352",
"g  c #655E55",
"h  c #6D6545",
"j  c #64645F",
"k  c #6E6658",
"l  c #6F6859",
"z  c #736B5E",
"x  c #787157",
"c  c #77705F",
"v  c #646462",
"b  c #696964",
"n  c #6E6E6C",
"m  c #7A7367",
"M  c #76746C",
"N  c #7D7D7A",
"B  c #855315",
"V  c #965611",
"C  c #A85911",
"Z  c #846514",
"A  c #8B6714",
"S  c #926915",
"D  c #9D7616",
"F  c #A87A16",
"G  c #C16011",
"H  c #D46912",
"J  c #EC7413",
"K  c #ED7D14",
"L  c #B48919",
"P  c #BA8918",
"I  c #C18A19",
"U  c #D49C1A",
"Y  c #E68516",
"T  c #EE8416",
"R  c #EF8A17",
"E  c #F08F17",
"W  c #E69118",
"Q  c #E9911E",
"!  c #F19519",
"~  c #F29919",
"^  c #E3AD1D",
"/  c #ECA91C",
"(  c #F5AE1D",
")  c #EDB81E",
"_  c #F5B31D",
"`  c #F7BB1F",
"'  c #FDFA02",
"]  c #CECA32",
"[  c #FFF228",
"{  c #998661",
"}  c #86857D",
"|  c #8E887D",
" . c #908A7D",
".. c #C3A25E",
"X. c #E2B04C",
"o. c #C2A473",
"O. c #868684",
"+. c #8D8C89",
"@. c #929187",
"#. c #999585",
"$. c #9D988E",
"%. c #939391",
"&. c #9E9D93",
"*. c #9C9C99",
"=. c #A6A69E",
"-. c #AAA69C",
";. c #A5A5A1",
":. c #ADACA5",
">. c #B1AFA4",
",. c #B4B3A7",
"<. c #B4B3AB",
"1. c #B9B8AC",
"2. c #B7B6B2",
"3. c #BAB7B0",
"4. c #BEBDB1",
"5. c #BCBCB9",
"6. c #C0BFB3",
"7. c #C2C2B6",
"8. c #C6C5BB",
"9. c #C8C7BE",
"0. c #C9C9BE",
"q. c #CDCCC3",
"w. c #CDCDC9",
"e. c #D0CFC6",
"r. c #D1D0C7",
"t. c #D3D3CE",
"y. c #DAD9D5",
"u. c #DDDCD9",
"i. c #E2E1DC",
"p. c #E6E6E1",
"a. c #E8E7E3",
"s. c #E9E9E5",
"d. c #EDEDE9",
"f. c #F2F2EF",
"g. c #F4F4F2",
"h. c #FAFAF9",
"j. c None",
/* pixels */
"j.j.j.j.j.j.j.j.j.j.j.j.j.j.j.j.j.j.j.[ ) j.j.j.j.j.j.j.j.j.j.j.j.j.j.j.j.j.j.j.j.j.j.j.j.j.j.j.",
"j.j.j.j.j.j.j.j.j.j.j.j.j.j.j.j.j.J J [ ` ` ` ` ` j.j.j.j.j.j.j.j.j.j.j.j.j.j.j.j.j.j.j.j.j.j.j.",
"j.j.j.j.j.j.j.j.j.j.j.j.j.j.j.J J J J [ ` ` ` ` ` ` ` ` _ j.j.j.j.j.j.j.j.j.j.j.j.j.j.j.j.j.j.j.",
"j.j.j.j.j.j.j.j.j.j.j.j.j.K J J J J J [ ` ` ` ` ` ` ` ` _ _ _ _ _ j.j.j.j.j.j.j.j.j.j.j.j.j.j.j.",
"j.j.j.j.j.j.j.j.j.j.j.T K K J J J J J [ ` ` ` ` ` ` ` ` _ _ _ _ _ _ _ _ _ j.j.j.j.j.j.j.j.j.j.j.",
"j.j.j.j.j.j.j.j.j.E R T K K J J J J J [ ` ` ` ` ` ` ` ` _ _ _ _ _ _ _ _ _ _ _ ( j.j.j.j.j.j.j.j.",
"j.j.j.j.j.j.j.! ! E R T K K J J J J J [ ` ` ` ` ` ` ` ` _ _ _ _ _ _ _ _ _ _ _ ( ( ( ( ( j.j.j.j.",
"j.j.j.j.j.j.~ ! ! E R T K K J J J J J [ ` ` ` ` ` ` ` ` _ _ _ _ _ _ _ _ _ _ _ ( ( ( ( ( ( ( j.j.",
"j.j.j.j.j.j.~ ! ! E R T K K J J J H 0 $ 8 Z L ^ ` ` ` ` _ _ _ _ _ _ _ _ _ _ _ ( ( ( ( ( ( ( j.j.",
"j.j.j.j.j.j.~ ! ! E R T K K J G 5 o o o o o o o % w D U _ _ _ _ _ _ _ _ _ _ _ ( ( ( ( ( ( ( j.j.",
"j.j.j.j.j.j.~ ! ! E R T K C 3 & * - - = & & = - * & o o + 9 A P / _ _ _ _ _ _ ( ( ( ( ( ( ( j.j.",
"j.j.j.j.j.j.~ ! ! E Y V # o & : p h a 6 : 6 a h a 6 & o o o o o o 4 e F U _ _ ( ( ( ( ( ( ( j.j.",
"j.j.j.j.j.j.~ ! Q B + o o o ; a ] ' ] a r a ] ' ] a : + + O O o o o o o o @ q S I ( ( ( ( ( j.j.",
"j.j.j.j.j.j.W o.:.=.M 7 O + : h ' ' ' h t h ' ' ' h : + + + + + + O O o o o o , y g { ..X./ j.j.",
"j.j.j.j.j.j.j.=.:.5.r.t.>.l 6 a ] ' ] a r a ] ' ] a : + + + + + & i z | -.7.u.t.q.5.5.2.2.j.j.j.",
"j.j.j.j.j.j.j.7.q.q.q.q.q.q.9.#.x h a 6 : 6 a h a 6 7 d m $.3.t.d.d.d.d.s.a.a.p.p.p.y.t.8.j.j.j.",
"j.j.j.j.j.j.j.e.e.q.q.0.8.7.7.8.q.>.c , u k  .-.q.p.f.d.d.d.s.s.s.a.a.a.a.p.p.p.p.p.p.p.i.j.j.j.",
"j.j.j.j.j.j.j.e.e.q.q.0.8.7.7.4.6.7.0.h.g.f.f.d.d.d.s.s.s.s.s.s.s.a.a.a.a.p.p.p.p.p.p.p.i.j.j.j.",
"j.j.j.j.j.j.j.e.e.q.q.0.8.7.7.4.4.4.4.h.f.d.d.d.d.d.s.s.s.s.s.s.s.a.a.a.a.p.p.p.p.p.p.p.i.j.j.j.",
"j.j.j.j.j.j.j.e.e.q.q.0.8.7.7.4.4.4.4.h.f.d.d.d.d.d.s.s.s.s.s.s.s.a.a.a.a.p.p.p.p.p.p.p.i.j.j.j.",
"j.j.j.j.j.j.j.e.e.q.q.0.8.7.7.4.4.4.4.h.f.d.d.d.d.d.s.s.s.s.s.s.s.a.a.a.a.p.p.p.p.p.p.p.i.j.j.j.",
"j.j.j.j.j.j.j.e.e.q.q.0.8.7.7.4.4.4.4.h.f.d.d.d.d.d.s.s.s.s.s.s.s.a.a.a.a.p.p.p.p.p.p.p.i.j.j.j.",
"j.j.j.j.j.j.j.e.e.q.q.0.8.7.7.4.4.4.4.h.f.d.d.d.d.d.s.s.s.s.s.s.s.a.a.a.a.p.p.p.p.p.p.p.i.j.j.j.",
"j.j.j.j.j.j.j.e.e.q.q.0.8.7.7.4.4.4.4.h.f.d.d.d.d.d.s.s.s.s.s.s.s.a.a.a.a.p.p.p.p.p.p.p.i.j.j.j.",
"j.j.j.j.j.j.j.e.e.q.q.0.8.7.7.4.4.4.4.h.f.d.d.d.d.d.s.s.s.s.s.s.s.a.a.a.a.p.p.p.p.p.p.p.i.j.j.j.",
"j.j.j.j.j.j.j.e.e.q.q.0.8.7.7.4.4.4.4.h.f.d.d.d.d.d.s.s.s.s.s.s.s.a.a.a.a.p.p.p.p.p.p.p.i.j.j.j.",
"j.j.j.j.j.j.j.e.e.q.q.0.8.7.7.4.4.4.4.h.f.d.d.d.d.d.s.s.s.s.s.s.s.a.a.a.a.p.p.p.p.p.p.p.i.j.j.j.",
"j.j.j.j.j.j.j.e.e.q.q.0.8.7.7.4.4.4.4.h.f.d.d.d.d.d.s.s.s.s.s.s.s.a.a.a.a.p.p.p.p.p.p.p.i.j.j.j.",
"j.j.j.j.j.j.j.e.e.q.q.0.8.7.7.4.4.4.4.h.f.d.d.d.d.d.s.s.s.s.s.s.s.a.a.a.a.p.p.p.p.p.p.p.i.j.j.j.",
"j.j.j.j.j.j.j.e.e.q.q.0.8.7.7.4.4.4.4.h.f.d.d.d.d.d.s.s.s.s.s.s.s.a.a.a.a.p.p.p.p.p.p.p.i.j.j.j.",
"j.j.j.j.j.j.j.e.e.q.q.0.8.7.7.4.4.4.4.h.f.d.d.d.d.d.s.s.s.s.s.s.s.a.a.a.a.p.p.p.p.p.p.p.i.j.j.j.",
"j.j.j.j.j.j.j.e.e.q.q.0.8.7.7.4.4.4.4.h.f.d.d.d.d.d.s.s.s.s.s.s.s.a.a.a.a.p.p.p.p.p.p.p.i.j.j.j.",
"j.j.j.j.j.j.j.e.e.q.q.0.8.7.7.4.4.4.4.h.f.d.d.d.d.d.s.s.s.s.s.s.s.a.a.a.a.p.p.p.p.p.p.p.i.j.j.j.",
"j.j.j.j.j.j.j.e.e.q.q.0.8.7.7.4.4.4.4.h.f.d.d.d.d.d.s.s.s.s.s.s.s.a.a.a.a.p.p.p.p.p.p.p.i.j.j.j.",
"j.j.j.j.j.j.j.e.e.q.q.0.8.7.7.4.4.4.4.h.f.d.d.d.d.d.s.s.s.s.s.s.s.a.a.a.a.p.p.p.p.p.p.p.i.j.j.j.",
"j.j.j.j.j.j.j.q.q.q.q.0.8.7.7.4.4.4.4.h.f.d.d.d.d.d.s.s.s.s.s.s.s.a.a.a.a.p.p.p.p.p.p.p.i.j.j.j.",
"j.j.j.j.j.j.j.j :.8.9.9.8.7.7.4.4.4.4.h.f.d.d.d.d.d.s.s.s.s.s.s.s.a.a.a.a.p.p.p.p.i.u.y.y.j.j.j.",
"j.j.j.j.j.j.j.j.j.b <.7.7.7.7.4.4.4.4.h.f.d.d.d.d.d.s.s.s.s.s.s.s.a.a.a.p.i.u.y.t.5.*.N j.j.j.j.",
"j.j.j.j.j.j.j.j.j.j.X M <.4.4.4.4.4.4.h.f.d.d.d.d.d.s.s.s.s.s.s.p.i.u.y.t.<.+.v j.j.j.j.j.j.j.j.",
"j.j.j.j.j.j.j.j.j.j.j.j.> } <.1.4.4.4.h.f.d.d.d.d.d.s.s.a.i.u.y.w.:.O.f j.j.j.j.j.j.j.j.j.j.j.j.",
"j.j.j.j.j.j.j.j.j.j.j.j.j.j.1 @.,.1.4.h.f.d.d.d.a.i.u.y.q.;.N 2 j.j.j.j.j.j.j.j.j.j.j.j.j.j.j.j.",
"j.j.j.j.j.j.j.j.j.j.j.j.j.j.j.  s &.,.g.d.p.u.y.8.*.n < j.j.j.j.j.j.j.j.j.j.j.j.j.j.j.j.j.j.j.j.",
"j.j.j.j.j.j.j.j.j.j.j.j.j.j.j.j.j.. j u.5.%.v j.j.j.j.j.j.j.j.j.j.j.j.j.j.j.j.j.j.j.j.j.j.j.j.j.",
"j.j.j.j.j.j.j.j.j.j.j.j.j.j.j.j.j.j.j.j.j.j.j.j.j.j.j.j.j.j.j.j.j.j.j.j.j.j.j.j.j.j.j.j.j.j.j.j.",
"j.j.j.j.j.j.j.j.j.j.j.j.j.j.j.j.j.j.j.j.j.j.j.j.j.j.j.j.j.j.j.j.j.j.j.j.j.j.j.j.j.j.j.j.j.j.j.j.",
"j.j.j.j.j.j.j.j.j.j.j.j.j.j.j.j.j.j.j.j.j.j.j.j.j.j.j.j.j.j.j.j.j.j.j.j.j.j.j.j.j.j.j.j.j.j.j.j.",
"j.j.j.j.j.j.j.j.j.j.j.j.j.j.j.j.j.j.j.j.j.j.j.j.j.j.j.j.j.j.j.j.j.j.j.j.j.j.j.j.j.j.j.j.j.j.j.j.",
"j.j.j.j.j.j.j.j.j.j.j.j.j.j.j.j.j.j.j.j.j.j.j.j.j.j.j.j.j.j.j.j.j.j.j.j.j.j.j.j.j.j.j.j.j.j.j.j."
};
